<svg xmlns="http://www.w3.org/2000/svg" width="480" height="160" viewBox="0 0 480 160">
  <defs>
    <linearGradient id="g" x1="0" y1="0" x2="0" y2="1">
      <stop offset="0%" stop-color="#1a3a4a"/>
      <stop offset="100%" stop-color="#0d1b24"/>
    </linearGradient>
  </defs>
  <rect width="480" height="160" fill="url(#g)"/>
  <g stroke="#3d8a9e" stroke-width="1" opacity="0.35">
    <line x1="20" y1="20" x2="20" y2="140"/>
<line x1="36" y1="20" x2="36" y2="140"/>
<line x1="52" y1="20" x2="52" y2="140"/>
<line x1="68" y1="20" x2="68" y2="140"/>
<line x1="84" y1="20" x2="84" y2="140"/>
<line x1="100" y1="20" x2="100" y2="140"/>
<line x1="116" y1="20" x2="116" y2="140"/>
<line x1="132" y1="20" x2="132" y2="140"/>
<line x1="148" y1="20" x2="148" y2="140"/>
<line x1="164" y1="20" x2="164" y2="140"/>
<line x1="180" y1="20" x2="180" y2="140"/>
<line x1="196" y1="20" x2="196" y2="140"/>
<line x1="212" y1="20" x2="212" y2="140"/>
<line x1="228" y1="20" x2="228" y2="140"/>
<line x1="244" y1="20" x2="244" y2="140"/>
<line x1="260" y1="20" x2="260" y2="140"/>
<line x1="276" y1="20" x2="276" y2="140"/>
<line x1="292" y1="20" x2="292" y2="140"/>
<line x1="308" y1="20" x2="308" y2="140"/>
<line x1="324" y1="20" x2="324" y2="140"/>
<line x1="340" y1="20" x2="340" y2="140"/>
<line x1="356" y1="20" x2="356" y2="140"/>
<line x1="372" y1="20" x2="372" y2="140"/>
<line x1="388" y1="20" x2="388" y2="140"/>
<line x1="404" y1="20" x2="404" y2="140"/>
<line x1="420" y1="20" x2="420" y2="140"/>
<line x1="436" y1="20" x2="436" y2="140"/>
<line x1="452" y1="20" x2="452" y2="140"/>
<line x1="468" y1="20" x2="468" y2="140"/>
  </g>
  <text x="240" y="84" text-anchor="middle" fill="#9ec9d6" font-family="Arial,sans-serif" font-size="16">Spectrogram placeholder</text>
</svg>
